<?xml version="1.0" encoding="UTF-8" standalone="no"?>
<!DOCTYPE svg PUBLIC "-//W3C//DTD SVG 1.1//EN" "http://www.w3.org/Graphics/SVG/1.1/DTD/svg11.dtd">
<svg width="100%" height="100%" viewBox="0 0 448 512" version="1.1" xmlns="http://www.w3.org/2000/svg" xmlns:xlink="http://www.w3.org/1999/xlink" xml:space="preserve" xmlns:serif="http://www.serif.com/" style="fill-rule:evenodd;clip-rule:evenodd;stroke-linejoin:round;stroke-miterlimit:2;">
    <path d="M433.941,65.941L382.059,14.059C373.061,5.061 360.843,0 348.118,0L176,0C149.49,0 128,21.49 128,48L128,96L48,96C21.49,96 0,117.49 0,144L0,464C0,490.51 21.49,512 48,512L272,512C298.51,512 320,490.51 320,464L320,416L400,416C426.51,416 448,394.51 448,368L448,99.882C448,87.157 442.939,74.939 433.941,65.941ZM266,464L54,464C50.708,464 48,461.292 48,458L48,150C48,146.708 50.708,144 54,144L128,144L128,368C128,394.51 149.49,416 176,416L272,416L272,458C272,461.292 269.292,464 266,464ZM394,368L182,368C178.708,368 176,365.292 176,362L176,54C176,50.708 178.708,48 182,48L288,48L288,136C288,149.255 298.745,160 312,160L400,160L400,362C400,365.292 397.292,368 394,368ZM400,112L336,112L336,48L345.632,48C347.223,48 348.749,48.632 349.875,49.757L398.243,98.125C399.368,99.25 400,100.777 400,102.368L400,112Z" style="fill:white;fill-rule:nonzero;"/>
</svg>
