<?xml version="1.0" encoding="UTF-8" standalone="no"?>
<!DOCTYPE svg PUBLIC "-//W3C//DTD SVG 1.1//EN" "http://www.w3.org/Graphics/SVG/1.1/DTD/svg11.dtd">
<svg width="100%" height="100%" viewBox="0 0 1978 1400" version="1.1" xmlns="http://www.w3.org/2000/svg" xmlns:xlink="http://www.w3.org/1999/xlink" xml:space="preserve" xmlns:serif="http://www.serif.com/" style="fill-rule:evenodd;clip-rule:evenodd;stroke-linejoin:round;stroke-miterlimit:2;">
    <g transform="matrix(1,0,0,1,-5618,0)">
        <g id="Artboard2" transform="matrix(1.23625,0,0,1,-1327.25,0)">
            <rect x="5618" y="0" width="1600" height="1400" style="fill:none;"/>
            <g transform="matrix(0.510177,-0.213185,0.172445,0.630706,2735.7,1235.28)">
                <g transform="matrix(-0.912656,0.408729,-0.408729,-0.912656,12232.9,-1271.72)">
                    <ellipse cx="6223" cy="600" rx="25" ry="40" style="fill:rgb(158,158,158);"/>
                </g>
                <g transform="matrix(-0.995473,0.0950483,-0.0950483,-0.995473,12493.7,750.294)">
                    <ellipse cx="6223" cy="600" rx="25" ry="40" style="fill:rgb(158,158,158);"/>
                </g>
                <g transform="matrix(-0.998507,-0.0546255,0.0546255,-0.998507,12358.1,1641.28)">
                    <ellipse cx="6223" cy="600" rx="25" ry="40" style="fill:rgb(158,158,158);"/>
                </g>
                <g transform="matrix(0.797352,-0.603514,-0.603514,-0.797352,1731.75,4889.13)">
                    <ellipse cx="6223" cy="600" rx="25" ry="40" style="fill:rgb(158,158,158);"/>
                </g>
                <g transform="matrix(-0.956329,0.292294,-0.292294,-0.956329,12425.6,-517.921)">
                    <path d="M6251.51,650C6251.51,650 6282.06,646.983 6298,690C6320.96,734.576 6330.49,721.257 6333,750C6336.43,789.348 6286.23,774.735 6256.92,770C6229.11,765.506 6179.74,796.929 6168,760C6156.26,723.071 6198.3,710.362 6208,690C6217.7,669.638 6220.76,645.682 6251.51,650Z" style="fill:rgb(158,158,158);"/>
                </g>
            </g>
            <g transform="matrix(0.538533,0,0,0.665761,2434.06,-182.214)">
                <g transform="matrix(-0.912656,0.408729,-0.408729,-0.912656,12232.9,-1271.72)">
                    <ellipse cx="6223" cy="600" rx="25" ry="40" style="fill:rgb(158,158,158);"/>
                </g>
                <g transform="matrix(-0.995473,0.0950483,-0.0950483,-0.995473,12493.7,750.294)">
                    <ellipse cx="6223" cy="600" rx="25" ry="40" style="fill:rgb(158,158,158);"/>
                </g>
                <g transform="matrix(-0.998507,-0.0546255,0.0546255,-0.998507,12358.1,1641.28)">
                    <ellipse cx="6223" cy="600" rx="25" ry="40" style="fill:rgb(158,158,158);"/>
                </g>
                <g transform="matrix(0.797352,-0.603514,-0.603514,-0.797352,1731.75,4889.13)">
                    <ellipse cx="6223" cy="600" rx="25" ry="40" style="fill:rgb(158,158,158);"/>
                </g>
                <g transform="matrix(-0.956329,0.292294,-0.292294,-0.956329,12425.6,-517.921)">
                    <path d="M6251.51,650C6251.51,650 6282.06,646.983 6298,690C6320.96,734.576 6330.49,721.257 6333,750C6336.43,789.348 6286.23,774.735 6256.92,770C6229.11,765.506 6179.74,796.929 6168,760C6156.26,723.071 6198.3,710.362 6208,690C6217.7,669.638 6220.76,645.682 6251.51,650Z" style="fill:rgb(158,158,158);"/>
                </g>
            </g>
            <g transform="matrix(0.510149,-0.213288,0.172528,0.630671,2674,1479.05)">
                <g transform="matrix(-0.912656,0.408729,-0.408729,-0.912656,12232.9,-1271.72)">
                    <ellipse cx="6223" cy="600" rx="25" ry="40" style="fill:rgb(158,158,158);"/>
                </g>
                <g transform="matrix(-0.995473,0.0950483,-0.0950483,-0.995473,12493.7,750.294)">
                    <ellipse cx="6223" cy="600" rx="25" ry="40" style="fill:rgb(158,158,158);"/>
                </g>
                <g transform="matrix(-0.998507,-0.0546255,0.0546255,-0.998507,12358.1,1641.28)">
                    <ellipse cx="6223" cy="600" rx="25" ry="40" style="fill:rgb(158,158,158);"/>
                </g>
                <g transform="matrix(0.797352,-0.603514,-0.603514,-0.797352,1731.75,4889.13)">
                    <ellipse cx="6223" cy="600" rx="25" ry="40" style="fill:rgb(158,158,158);"/>
                </g>
                <g transform="matrix(-0.956329,0.292294,-0.292294,-0.956329,12425.6,-517.921)">
                    <path d="M6251.51,650C6251.51,650 6282.06,646.983 6298,690C6320.96,734.576 6330.49,721.257 6333,750C6336.43,789.348 6286.23,774.735 6256.92,770C6229.11,765.506 6179.74,796.929 6168,760C6156.26,723.071 6198.3,710.362 6208,690C6217.7,669.638 6220.76,645.682 6251.51,650Z" style="fill:rgb(158,158,158);"/>
                </g>
            </g>
            <g transform="matrix(0.318697,-0.536666,0.434108,0.393989,4177.2,3883.72)">
                <g transform="matrix(-0.912656,0.408729,-0.408729,-0.912656,12232.9,-1271.72)">
                    <ellipse cx="6223" cy="600" rx="25" ry="40" style="fill:rgb(158,158,158);"/>
                </g>
                <g transform="matrix(-0.995473,0.0950483,-0.0950483,-0.995473,12493.7,750.294)">
                    <ellipse cx="6223" cy="600" rx="25" ry="40" style="fill:rgb(158,158,158);"/>
                </g>
                <g transform="matrix(-0.998507,-0.0546255,0.0546255,-0.998507,12358.1,1641.28)">
                    <ellipse cx="6223" cy="600" rx="25" ry="40" style="fill:rgb(158,158,158);"/>
                </g>
                <g transform="matrix(0.797352,-0.603514,-0.603514,-0.797352,1731.75,4889.13)">
                    <ellipse cx="6223" cy="600" rx="25" ry="40" style="fill:rgb(158,158,158);"/>
                </g>
                <g transform="matrix(-0.956329,0.292294,-0.292294,-0.956329,12425.6,-517.921)">
                    <path d="M6251.51,650C6251.51,650 6282.06,646.983 6298,690C6320.96,734.576 6330.49,721.257 6333,750C6336.43,789.348 6286.23,774.735 6256.92,770C6229.11,765.506 6179.74,796.929 6168,760C6156.26,723.071 6198.3,710.362 6208,690C6217.7,669.638 6220.76,645.682 6251.51,650Z" style="fill:rgb(158,158,158);"/>
                </g>
            </g>
            <g transform="matrix(0.414557,-0.424954,0.343744,0.512496,3419.09,2901.54)">
                <g transform="matrix(-0.912656,0.408729,-0.408729,-0.912656,12232.9,-1271.72)">
                    <ellipse cx="6223" cy="600" rx="25" ry="40" style="fill:rgb(158,158,158);"/>
                </g>
                <g transform="matrix(-0.995473,0.0950483,-0.0950483,-0.995473,12493.7,750.294)">
                    <ellipse cx="6223" cy="600" rx="25" ry="40" style="fill:rgb(158,158,158);"/>
                </g>
                <g transform="matrix(-0.998507,-0.0546255,0.0546255,-0.998507,12358.1,1641.28)">
                    <ellipse cx="6223" cy="600" rx="25" ry="40" style="fill:rgb(158,158,158);"/>
                </g>
                <g transform="matrix(0.797352,-0.603514,-0.603514,-0.797352,1731.75,4889.13)">
                    <ellipse cx="6223" cy="600" rx="25" ry="40" style="fill:rgb(158,158,158);"/>
                </g>
                <g transform="matrix(-0.956329,0.292294,-0.292294,-0.956329,12425.6,-517.921)">
                    <path d="M6251.51,650C6251.51,650 6282.06,646.983 6298,690C6320.96,734.576 6330.49,721.257 6333,750C6336.43,789.348 6286.23,774.735 6256.92,770C6229.11,765.506 6179.74,796.929 6168,760C6156.26,723.071 6198.3,710.362 6208,690C6217.7,669.638 6220.76,645.682 6251.51,650Z" style="fill:rgb(158,158,158);"/>
                </g>
            </g>
            <g transform="matrix(0.434719,-0.392959,0.317864,0.537421,3235.72,2965.88)">
                <g transform="matrix(-0.912656,0.408729,-0.408729,-0.912656,12232.9,-1271.72)">
                    <ellipse cx="6223" cy="600" rx="25" ry="40" style="fill:rgb(158,158,158);"/>
                </g>
                <g transform="matrix(-0.995473,0.0950483,-0.0950483,-0.995473,12493.7,750.294)">
                    <ellipse cx="6223" cy="600" rx="25" ry="40" style="fill:rgb(158,158,158);"/>
                </g>
                <g transform="matrix(-0.998507,-0.0546255,0.0546255,-0.998507,12358.1,1641.28)">
                    <ellipse cx="6223" cy="600" rx="25" ry="40" style="fill:rgb(158,158,158);"/>
                </g>
                <g transform="matrix(0.797352,-0.603514,-0.603514,-0.797352,1731.75,4889.13)">
                    <ellipse cx="6223" cy="600" rx="25" ry="40" style="fill:rgb(158,158,158);"/>
                </g>
                <g transform="matrix(-0.956329,0.292294,-0.292294,-0.956329,12425.6,-517.921)">
                    <path d="M6251.51,650C6251.51,650 6282.06,646.983 6298,690C6320.96,734.576 6330.49,721.257 6333,750C6336.43,789.348 6286.23,774.735 6256.92,770C6229.11,765.506 6179.74,796.929 6168,760C6156.26,723.071 6198.3,710.362 6208,690C6217.7,669.638 6220.76,645.682 6251.51,650Z" style="fill:rgb(158,158,158);"/>
                </g>
            </g>
            <g transform="matrix(0.350488,-0.505468,0.408872,0.433291,3915.51,3925.2)">
                <g transform="matrix(-0.912656,0.408729,-0.408729,-0.912656,12232.9,-1271.72)">
                    <ellipse cx="6223" cy="600" rx="25" ry="40" style="fill:rgb(158,158,158);"/>
                </g>
                <g transform="matrix(-0.995473,0.0950483,-0.0950483,-0.995473,12493.7,750.294)">
                    <ellipse cx="6223" cy="600" rx="25" ry="40" style="fill:rgb(158,158,158);"/>
                </g>
                <g transform="matrix(-0.998507,-0.0546255,0.0546255,-0.998507,12358.1,1641.28)">
                    <ellipse cx="6223" cy="600" rx="25" ry="40" style="fill:rgb(158,158,158);"/>
                </g>
                <g transform="matrix(0.797352,-0.603514,-0.603514,-0.797352,1731.75,4889.13)">
                    <ellipse cx="6223" cy="600" rx="25" ry="40" style="fill:rgb(158,158,158);"/>
                </g>
                <g transform="matrix(-0.956329,0.292294,-0.292294,-0.956329,12425.6,-517.921)">
                    <path d="M6251.51,650C6251.51,650 6282.06,646.983 6298,690C6320.96,734.576 6330.49,721.257 6333,750C6336.43,789.348 6286.23,774.735 6256.92,770C6229.11,765.506 6179.74,796.929 6168,760C6156.26,723.071 6198.3,710.362 6208,690C6217.7,669.638 6220.76,645.682 6251.51,650Z" style="fill:rgb(158,158,158);"/>
                </g>
            </g>
            <g transform="matrix(0.268164,-0.577351,0.467018,0.331517,4776.39,4273.47)">
                <g transform="matrix(-0.912656,0.408729,-0.408729,-0.912656,12232.9,-1271.72)">
                    <ellipse cx="6223" cy="600" rx="25" ry="40" style="fill:rgb(158,158,158);"/>
                </g>
                <g transform="matrix(-0.995473,0.0950483,-0.0950483,-0.995473,12493.7,750.294)">
                    <ellipse cx="6223" cy="600" rx="25" ry="40" style="fill:rgb(158,158,158);"/>
                </g>
                <g transform="matrix(-0.998507,-0.0546255,0.0546255,-0.998507,12358.1,1641.28)">
                    <ellipse cx="6223" cy="600" rx="25" ry="40" style="fill:rgb(158,158,158);"/>
                </g>
                <g transform="matrix(0.797352,-0.603514,-0.603514,-0.797352,1731.75,4889.13)">
                    <ellipse cx="6223" cy="600" rx="25" ry="40" style="fill:rgb(158,158,158);"/>
                </g>
                <g transform="matrix(-0.956329,0.292294,-0.292294,-0.956329,12425.6,-517.921)">
                    <path d="M6251.51,650C6251.51,650 6282.06,646.983 6298,690C6320.96,734.576 6330.49,721.257 6333,750C6336.43,789.348 6286.23,774.735 6256.92,770C6229.11,765.506 6179.74,796.929 6168,760C6156.26,723.071 6198.3,710.362 6208,690C6217.7,669.638 6220.76,645.682 6251.51,650Z" style="fill:rgb(158,158,158);"/>
                </g>
            </g>
            <g transform="matrix(0.268164,-0.577351,0.467018,0.331517,4650.58,4515.23)">
                <g transform="matrix(-0.912656,0.408729,-0.408729,-0.912656,12232.9,-1271.72)">
                    <ellipse cx="6223" cy="600" rx="25" ry="40" style="fill:rgb(158,158,158);"/>
                </g>
                <g transform="matrix(-0.995473,0.0950483,-0.0950483,-0.995473,12493.7,750.294)">
                    <ellipse cx="6223" cy="600" rx="25" ry="40" style="fill:rgb(158,158,158);"/>
                </g>
                <g transform="matrix(-0.998507,-0.0546255,0.0546255,-0.998507,12358.1,1641.28)">
                    <ellipse cx="6223" cy="600" rx="25" ry="40" style="fill:rgb(158,158,158);"/>
                </g>
                <g transform="matrix(0.797352,-0.603514,-0.603514,-0.797352,1731.75,4889.13)">
                    <ellipse cx="6223" cy="600" rx="25" ry="40" style="fill:rgb(158,158,158);"/>
                </g>
                <g transform="matrix(-0.956329,0.292294,-0.292294,-0.956329,12425.6,-517.921)">
                    <path d="M6251.51,650C6251.51,650 6282.06,646.983 6298,690C6320.96,734.576 6330.49,721.257 6333,750C6336.43,789.348 6286.23,774.735 6256.92,770C6229.11,765.506 6179.74,796.929 6168,760C6156.26,723.071 6198.3,710.362 6208,690C6217.7,669.638 6220.76,645.682 6251.51,650Z" style="fill:rgb(158,158,158);"/>
                </g>
            </g>
            <g transform="matrix(0.215547,-0.610108,0.493515,0.26647,5372.49,4513.89)">
                <g transform="matrix(-0.912656,0.408729,-0.408729,-0.912656,12232.9,-1271.72)">
                    <ellipse cx="6223" cy="600" rx="25" ry="40" style="fill:rgb(158,158,158);"/>
                </g>
                <g transform="matrix(-0.995473,0.0950483,-0.0950483,-0.995473,12493.7,750.294)">
                    <ellipse cx="6223" cy="600" rx="25" ry="40" style="fill:rgb(158,158,158);"/>
                </g>
                <g transform="matrix(-0.998507,-0.0546255,0.0546255,-0.998507,12358.1,1641.28)">
                    <ellipse cx="6223" cy="600" rx="25" ry="40" style="fill:rgb(158,158,158);"/>
                </g>
                <g transform="matrix(0.797352,-0.603514,-0.603514,-0.797352,1731.75,4889.13)">
                    <ellipse cx="6223" cy="600" rx="25" ry="40" style="fill:rgb(158,158,158);"/>
                </g>
                <g transform="matrix(-0.956329,0.292294,-0.292294,-0.956329,12425.6,-517.921)">
                    <path d="M6251.51,650C6251.51,650 6282.06,646.983 6298,690C6320.96,734.576 6330.49,721.257 6333,750C6336.43,789.348 6286.23,774.735 6256.92,770C6229.11,765.506 6179.74,796.929 6168,760C6156.26,723.071 6198.3,710.362 6208,690C6217.7,669.638 6220.76,645.682 6251.51,650Z" style="fill:rgb(158,158,158);"/>
                </g>
            </g>
            <g transform="matrix(0.215547,-0.610108,0.493515,0.26647,5268.8,4771.19)">
                <g transform="matrix(-0.912656,0.408729,-0.408729,-0.912656,12232.9,-1271.72)">
                    <ellipse cx="6223" cy="600" rx="25" ry="40" style="fill:rgb(158,158,158);"/>
                </g>
                <g transform="matrix(-0.995473,0.0950483,-0.0950483,-0.995473,12493.7,750.294)">
                    <ellipse cx="6223" cy="600" rx="25" ry="40" style="fill:rgb(158,158,158);"/>
                </g>
                <g transform="matrix(-0.998507,-0.0546255,0.0546255,-0.998507,12358.1,1641.28)">
                    <ellipse cx="6223" cy="600" rx="25" ry="40" style="fill:rgb(158,158,158);"/>
                </g>
                <g transform="matrix(0.797352,-0.603514,-0.603514,-0.797352,1731.75,4889.13)">
                    <ellipse cx="6223" cy="600" rx="25" ry="40" style="fill:rgb(158,158,158);"/>
                </g>
                <g transform="matrix(-0.956329,0.292294,-0.292294,-0.956329,12425.6,-517.921)">
                    <path d="M6251.51,650C6251.51,650 6282.06,646.983 6298,690C6320.96,734.576 6330.49,721.257 6333,750C6336.43,789.348 6286.23,774.735 6256.92,770C6229.11,765.506 6179.74,796.929 6168,760C6156.26,723.071 6198.3,710.362 6208,690C6217.7,669.638 6220.76,645.682 6251.51,650Z" style="fill:rgb(158,158,158);"/>
                </g>
            </g>
        </g>
    </g>
</svg>
